<mxfile host="app.diagrams.net" modified="2021-06-09T12:26:49.064Z" agent="5.0 (Windows NT 10.0; Win64; x64) AppleWebKit/537.36 (KHTML, like Gecko) Chrome/91.0.4472.77 Safari/537.36" etag="MRiNzy2H7nqOPY7b84G1" version="14.7.6" type="github">
  <diagram id="4dsvGqndPtk7zQRugNVc" name="Page-1">
    <mxGraphModel dx="483" dy="479" grid="1" gridSize="10" guides="1" tooltips="1" connect="1" arrows="1" fold="1" page="1" pageScale="1" pageWidth="827" pageHeight="1169" math="0" shadow="0">
      <root>
        <mxCell id="0" />
        <mxCell id="1" parent="0" />
        <mxCell id="vUpk6sxPQSn8tMHkfNGP-36" style="edgeStyle=orthogonalEdgeStyle;rounded=0;orthogonalLoop=1;jettySize=auto;html=1;exitX=1;exitY=0.5;exitDx=0;exitDy=0;entryX=0;entryY=0.5;entryDx=0;entryDy=0;" edge="1" parent="1" source="vUpk6sxPQSn8tMHkfNGP-26" target="vUpk6sxPQSn8tMHkfNGP-31">
          <mxGeometry relative="1" as="geometry" />
        </mxCell>
        <mxCell id="vUpk6sxPQSn8tMHkfNGP-26" value="" style="rounded=1;whiteSpace=wrap;html=1;dashed=1;" vertex="1" parent="1">
          <mxGeometry x="210" y="70" width="390" height="270" as="geometry" />
        </mxCell>
        <mxCell id="vUpk6sxPQSn8tMHkfNGP-37" style="edgeStyle=orthogonalEdgeStyle;rounded=0;orthogonalLoop=1;jettySize=auto;html=1;exitX=0.5;exitY=1;exitDx=0;exitDy=0;" edge="1" parent="1" source="vUpk6sxPQSn8tMHkfNGP-1" target="vUpk6sxPQSn8tMHkfNGP-28">
          <mxGeometry relative="1" as="geometry" />
        </mxCell>
        <mxCell id="vUpk6sxPQSn8tMHkfNGP-1" value="Motor komutu" style="rounded=1;whiteSpace=wrap;html=1;" vertex="1" parent="1">
          <mxGeometry x="510" y="275" width="80" height="50" as="geometry" />
        </mxCell>
        <mxCell id="vUpk6sxPQSn8tMHkfNGP-10" style="edgeStyle=orthogonalEdgeStyle;rounded=0;orthogonalLoop=1;jettySize=auto;html=1;exitX=1;exitY=0.5;exitDx=0;exitDy=0;entryX=0;entryY=0.5;entryDx=0;entryDy=0;" edge="1" parent="1" source="vUpk6sxPQSn8tMHkfNGP-2" target="vUpk6sxPQSn8tMHkfNGP-1">
          <mxGeometry relative="1" as="geometry" />
        </mxCell>
        <mxCell id="vUpk6sxPQSn8tMHkfNGP-2" value="Hareket Kontrolcüsü&lt;br&gt;(comuted torque, pid vb.)" style="rounded=1;whiteSpace=wrap;html=1;" vertex="1" parent="1">
          <mxGeometry x="400" y="270" width="90" height="60" as="geometry" />
        </mxCell>
        <mxCell id="vUpk6sxPQSn8tMHkfNGP-12" style="edgeStyle=orthogonalEdgeStyle;rounded=0;orthogonalLoop=1;jettySize=auto;html=1;exitX=0.5;exitY=0;exitDx=0;exitDy=0;entryX=0.318;entryY=1.02;entryDx=0;entryDy=0;entryPerimeter=0;" edge="1" parent="1" source="vUpk6sxPQSn8tMHkfNGP-3" target="vUpk6sxPQSn8tMHkfNGP-5">
          <mxGeometry relative="1" as="geometry">
            <Array as="points">
              <mxPoint x="269" y="170" />
              <mxPoint x="304" y="170" />
            </Array>
          </mxGeometry>
        </mxCell>
        <mxCell id="vUpk6sxPQSn8tMHkfNGP-18" style="edgeStyle=orthogonalEdgeStyle;rounded=0;orthogonalLoop=1;jettySize=auto;html=1;exitX=0.5;exitY=1;exitDx=0;exitDy=0;entryX=0.327;entryY=-0.04;entryDx=0;entryDy=0;entryPerimeter=0;" edge="1" parent="1" source="vUpk6sxPQSn8tMHkfNGP-3" target="vUpk6sxPQSn8tMHkfNGP-16">
          <mxGeometry relative="1" as="geometry">
            <Array as="points">
              <mxPoint x="269" y="230" />
              <mxPoint x="305" y="230" />
            </Array>
          </mxGeometry>
        </mxCell>
        <mxCell id="vUpk6sxPQSn8tMHkfNGP-3" value="Lidar okuması" style="rounded=1;whiteSpace=wrap;html=1;" vertex="1" parent="1">
          <mxGeometry x="229" y="175" width="80" height="50" as="geometry" />
        </mxCell>
        <mxCell id="vUpk6sxPQSn8tMHkfNGP-13" style="edgeStyle=orthogonalEdgeStyle;rounded=0;orthogonalLoop=1;jettySize=auto;html=1;exitX=0.5;exitY=0;exitDx=0;exitDy=0;entryX=0.75;entryY=1;entryDx=0;entryDy=0;" edge="1" parent="1" source="vUpk6sxPQSn8tMHkfNGP-4" target="vUpk6sxPQSn8tMHkfNGP-5">
          <mxGeometry relative="1" as="geometry">
            <Array as="points">
              <mxPoint x="394" y="170" />
              <mxPoint x="352" y="170" />
            </Array>
          </mxGeometry>
        </mxCell>
        <mxCell id="vUpk6sxPQSn8tMHkfNGP-14" style="edgeStyle=orthogonalEdgeStyle;rounded=0;orthogonalLoop=1;jettySize=auto;html=1;exitX=0.5;exitY=1;exitDx=0;exitDy=0;entryX=0.5;entryY=0;entryDx=0;entryDy=0;" edge="1" parent="1" source="vUpk6sxPQSn8tMHkfNGP-4" target="vUpk6sxPQSn8tMHkfNGP-2">
          <mxGeometry relative="1" as="geometry" />
        </mxCell>
        <mxCell id="vUpk6sxPQSn8tMHkfNGP-4" value="Diğer Sensör Okuması (enkoder,dönüölçer)" style="rounded=1;whiteSpace=wrap;html=1;" vertex="1" parent="1">
          <mxGeometry x="339" y="180" width="110" height="50" as="geometry" />
        </mxCell>
        <mxCell id="vUpk6sxPQSn8tMHkfNGP-15" style="edgeStyle=orthogonalEdgeStyle;rounded=0;orthogonalLoop=1;jettySize=auto;html=1;exitX=1;exitY=0.5;exitDx=0;exitDy=0;" edge="1" parent="1" source="vUpk6sxPQSn8tMHkfNGP-5">
          <mxGeometry relative="1" as="geometry">
            <mxPoint x="460" y="270" as="targetPoint" />
            <Array as="points">
              <mxPoint x="460" y="125" />
              <mxPoint x="460" y="270" />
            </Array>
          </mxGeometry>
        </mxCell>
        <mxCell id="vUpk6sxPQSn8tMHkfNGP-17" style="edgeStyle=orthogonalEdgeStyle;rounded=0;orthogonalLoop=1;jettySize=auto;html=1;exitX=0.5;exitY=1;exitDx=0;exitDy=0;entryX=0.5;entryY=0;entryDx=0;entryDy=0;" edge="1" parent="1" source="vUpk6sxPQSn8tMHkfNGP-5" target="vUpk6sxPQSn8tMHkfNGP-16">
          <mxGeometry relative="1" as="geometry" />
        </mxCell>
        <mxCell id="vUpk6sxPQSn8tMHkfNGP-5" value="Olasılıksal Filtre (Kalman, Particle)" style="rounded=1;whiteSpace=wrap;html=1;" vertex="1" parent="1">
          <mxGeometry x="269" y="100" width="110" height="50" as="geometry" />
        </mxCell>
        <mxCell id="vUpk6sxPQSn8tMHkfNGP-27" style="edgeStyle=orthogonalEdgeStyle;rounded=0;orthogonalLoop=1;jettySize=auto;html=1;exitX=1;exitY=0.5;exitDx=0;exitDy=0;entryX=0;entryY=0.5;entryDx=0;entryDy=0;" edge="1" parent="1" source="vUpk6sxPQSn8tMHkfNGP-8" target="vUpk6sxPQSn8tMHkfNGP-28">
          <mxGeometry relative="1" as="geometry" />
        </mxCell>
        <mxCell id="vUpk6sxPQSn8tMHkfNGP-8" value="Başla" style="rounded=1;whiteSpace=wrap;html=1;" vertex="1" parent="1">
          <mxGeometry x="10" y="190" width="80" height="50" as="geometry" />
        </mxCell>
        <mxCell id="vUpk6sxPQSn8tMHkfNGP-9" value="Bitir" style="rounded=1;whiteSpace=wrap;html=1;" vertex="1" parent="1">
          <mxGeometry x="740" y="185" width="80" height="50" as="geometry" />
        </mxCell>
        <mxCell id="vUpk6sxPQSn8tMHkfNGP-23" style="edgeStyle=orthogonalEdgeStyle;rounded=0;orthogonalLoop=1;jettySize=auto;html=1;exitX=1;exitY=0.75;exitDx=0;exitDy=0;entryX=0;entryY=0.5;entryDx=0;entryDy=0;" edge="1" parent="1" source="vUpk6sxPQSn8tMHkfNGP-16" target="vUpk6sxPQSn8tMHkfNGP-2">
          <mxGeometry relative="1" as="geometry">
            <Array as="points">
              <mxPoint x="390" y="283" />
              <mxPoint x="390" y="300" />
            </Array>
          </mxGeometry>
        </mxCell>
        <mxCell id="vUpk6sxPQSn8tMHkfNGP-41" style="edgeStyle=orthogonalEdgeStyle;rounded=0;orthogonalLoop=1;jettySize=auto;html=1;exitX=0;exitY=0.5;exitDx=0;exitDy=0;entryX=0.25;entryY=0;entryDx=0;entryDy=0;" edge="1" parent="1" source="vUpk6sxPQSn8tMHkfNGP-16" target="vUpk6sxPQSn8tMHkfNGP-39">
          <mxGeometry relative="1" as="geometry">
            <Array as="points">
              <mxPoint x="220" y="285" />
              <mxPoint x="220" y="90" />
              <mxPoint x="507" y="90" />
            </Array>
          </mxGeometry>
        </mxCell>
        <mxCell id="vUpk6sxPQSn8tMHkfNGP-16" value="Haritalama ve konumlama" style="rounded=1;whiteSpace=wrap;html=1;" vertex="1" parent="1">
          <mxGeometry x="269" y="245" width="110" height="50" as="geometry" />
        </mxCell>
        <mxCell id="vUpk6sxPQSn8tMHkfNGP-30" style="edgeStyle=orthogonalEdgeStyle;rounded=0;orthogonalLoop=1;jettySize=auto;html=1;exitX=1;exitY=0.5;exitDx=0;exitDy=0;" edge="1" parent="1" source="vUpk6sxPQSn8tMHkfNGP-28">
          <mxGeometry relative="1" as="geometry">
            <mxPoint x="210" y="215" as="targetPoint" />
          </mxGeometry>
        </mxCell>
        <mxCell id="vUpk6sxPQSn8tMHkfNGP-28" value="Simülasyon ya da gerçek donanım" style="rounded=1;whiteSpace=wrap;html=1;" vertex="1" parent="1">
          <mxGeometry x="110" y="195" width="80" height="40" as="geometry" />
        </mxCell>
        <mxCell id="vUpk6sxPQSn8tMHkfNGP-32" style="edgeStyle=orthogonalEdgeStyle;rounded=0;orthogonalLoop=1;jettySize=auto;html=1;exitX=1;exitY=0.5;exitDx=0;exitDy=0;entryX=-0.004;entryY=0.608;entryDx=0;entryDy=0;entryPerimeter=0;" edge="1" parent="1" source="vUpk6sxPQSn8tMHkfNGP-31" target="vUpk6sxPQSn8tMHkfNGP-9">
          <mxGeometry relative="1" as="geometry" />
        </mxCell>
        <mxCell id="vUpk6sxPQSn8tMHkfNGP-34" style="edgeStyle=orthogonalEdgeStyle;rounded=0;orthogonalLoop=1;jettySize=auto;html=1;exitX=0.5;exitY=1;exitDx=0;exitDy=0;entryX=1;entryY=0.75;entryDx=0;entryDy=0;" edge="1" parent="1" source="vUpk6sxPQSn8tMHkfNGP-31" target="vUpk6sxPQSn8tMHkfNGP-26">
          <mxGeometry relative="1" as="geometry">
            <Array as="points">
              <mxPoint x="670" y="300" />
              <mxPoint x="620" y="300" />
              <mxPoint x="620" y="275" />
            </Array>
          </mxGeometry>
        </mxCell>
        <mxCell id="vUpk6sxPQSn8tMHkfNGP-31" value="Haritalama Hatası Azaldı mı, Gezilecek konumlar tamamlandı mı" style="rhombus;whiteSpace=wrap;html=1;" vertex="1" parent="1">
          <mxGeometry x="620" y="150" width="100" height="130" as="geometry" />
        </mxCell>
        <mxCell id="vUpk6sxPQSn8tMHkfNGP-33" value="E" style="text;html=1;align=center;verticalAlign=middle;resizable=0;points=[];autosize=1;strokeColor=none;" vertex="1" parent="1">
          <mxGeometry x="720" y="190" width="20" height="20" as="geometry" />
        </mxCell>
        <mxCell id="vUpk6sxPQSn8tMHkfNGP-35" value="H" style="text;html=1;align=center;verticalAlign=middle;resizable=0;points=[];autosize=1;strokeColor=none;" vertex="1" parent="1">
          <mxGeometry x="670" y="290" width="20" height="20" as="geometry" />
        </mxCell>
        <mxCell id="vUpk6sxPQSn8tMHkfNGP-38" value="Poz - Hız Guncelle" style="text;html=1;align=center;verticalAlign=middle;resizable=0;points=[];autosize=1;strokeColor=none;" vertex="1" parent="1">
          <mxGeometry x="70" y="260" width="120" height="20" as="geometry" />
        </mxCell>
        <mxCell id="vUpk6sxPQSn8tMHkfNGP-40" style="edgeStyle=orthogonalEdgeStyle;rounded=0;orthogonalLoop=1;jettySize=auto;html=1;exitX=0.5;exitY=1;exitDx=0;exitDy=0;" edge="1" parent="1" source="vUpk6sxPQSn8tMHkfNGP-39" target="vUpk6sxPQSn8tMHkfNGP-2">
          <mxGeometry relative="1" as="geometry">
            <Array as="points">
              <mxPoint x="535" y="220" />
              <mxPoint x="470" y="220" />
            </Array>
          </mxGeometry>
        </mxCell>
        <mxCell id="vUpk6sxPQSn8tMHkfNGP-39" value="Yörünge Planlayıcı" style="rounded=1;whiteSpace=wrap;html=1;" vertex="1" parent="1">
          <mxGeometry x="480" y="120" width="110" height="50" as="geometry" />
        </mxCell>
        <mxCell id="vUpk6sxPQSn8tMHkfNGP-43" style="edgeStyle=orthogonalEdgeStyle;rounded=0;orthogonalLoop=1;jettySize=auto;html=1;exitX=1;exitY=0.5;exitDx=0;exitDy=0;entryX=0;entryY=0.75;entryDx=0;entryDy=0;" edge="1" parent="1" source="vUpk6sxPQSn8tMHkfNGP-42" target="vUpk6sxPQSn8tMHkfNGP-2">
          <mxGeometry relative="1" as="geometry">
            <Array as="points">
              <mxPoint x="364" y="315" />
            </Array>
          </mxGeometry>
        </mxCell>
        <mxCell id="vUpk6sxPQSn8tMHkfNGP-42" value="Odometre" style="rounded=1;whiteSpace=wrap;html=1;" vertex="1" parent="1">
          <mxGeometry x="284" y="295" width="80" height="35" as="geometry" />
        </mxCell>
      </root>
    </mxGraphModel>
  </diagram>
</mxfile>
